<?xml version="1.0" encoding="UTF-8"?>
<svg width="1080" height="1080" viewBox="0 0 1080 1080" fill="none" xmlns="http://www.w3.org/2000/svg">
  <defs>
    <style>
      @import url('https://fonts.googleapis.com/css2?family=Cinzel:wght@700;800&amp;family=Montserrat:wght@500;600;700&amp;display=swap');
      .wm-title { font-family: 'Cinzel', serif; font-weight: 700; letter-spacing: 16px; font-size: 56px; fill: url(#goldGradW1); }
      .wm-sub { font-family: 'Montserrat', sans-serif; font-weight: 600; letter-spacing: 9px; font-size: 17px; fill: #FDE68A; }
      .wm-domain { font-family: 'Montserrat', sans-serif; font-weight: 600; letter-spacing: 5px; font-size: 15px; fill: #D97706; }
    </style>
    <linearGradient id="goldGradW1" x1="0%" y1="0%" x2="100%" y2="100%">
      <stop offset="0%" stop-color="#FFFBEB" /><stop offset="25%" stop-color="#FCD34D" /><stop offset="55%" stop-color="#F59E0B" /><stop offset="85%" stop-color="#D97706" /><stop offset="100%" stop-color="#92400E" />
    </linearGradient>
  </defs>

  <!-- Isotipo Central The Golden "O" -->
  <g transform="translate(540, 440)">
    <circle cx="0" cy="0" r="220" stroke="url(#goldGradW1)" stroke-width="7" />
    <circle cx="0" cy="0" r="202" stroke="url(#goldGradW1)" stroke-width="1.5" stroke-opacity="0.5" />
    
    <!-- Lado Izquierdo: Hoja Botánica de Té -->
    <path d="M 0,-180 C -120,-140 -160,-40 -160,20 C -160,110 -90,170 0,180 C -60,130 -80,50 -70,-20 C -60,-80 -25,-140 0,-180 Z" fill="url(#goldGradW1)" fill-opacity="0.9" />
    <path d="M 0,-160 Q -70, -20 0, 160" stroke="#000000" stroke-width="3.5" stroke-linecap="round" fill="none" opacity="0.8" />
    <path d="M -25,-90 Q -65,-75 -105,-80" stroke="#000000" stroke-width="2.5" stroke-linecap="round" fill="none" opacity="0.8" />
    <path d="M -38,-20 Q -85,-10 -125,-18" stroke="#000000" stroke-width="2.5" stroke-linecap="round" fill="none" opacity="0.8" />
    <path d="M -28,50 Q -75,65 -110,55" stroke="#000000" stroke-width="2.5" stroke-linecap="round" fill="none" opacity="0.8" />

    <!-- Lado Derecho: Grano de Café Arábica -->
    <path d="M 0,-180 C 110,-150 175,-70 175,25 C 175,120 100,175 0,180 C 40,140 70,80 70,10 C 70,-60 35,-130 0,-180 Z" fill="url(#goldGradW1)" />
    <path d="M 0,-170 C 45,-100 50,-40 30,10 C 10,60 35,120 0,170" stroke="#000000" stroke-width="4.5" stroke-linecap="round" fill="none" opacity="0.8" />
  </g>

  <text x="540" y="780" text-anchor="middle" class="wm-title">TÉ O CAFÉ</text>
  <text x="540" y="845" text-anchor="middle" class="wm-sub">ESPECIALIDAD &amp; ORIGEN</text>
  <text x="540" y="895" text-anchor="middle" class="wm-domain">TEOCAFE.CL</text>
</svg>