<?xml version="1.0" encoding="UTF-8"?>
<svg width="1080" height="1080" viewBox="0 0 1080 1080" fill="none" xmlns="http://www.w3.org/2000/svg">
  <defs>
    <style>
      @import url('https://fonts.googleapis.com/css2?family=Cinzel:wght@700;800&amp;family=Montserrat:wght@400;500;600;700&amp;display=swap');
      .v18-title { font-family: 'Cinzel', serif; font-weight: 700; letter-spacing: 16px; font-size: 54px; fill: url(#goldGrad18); }
      .v18-sub { font-family: 'Montserrat', sans-serif; font-weight: 600; letter-spacing: 8px; font-size: 15px; fill: #FDE68A; }
    </style>
    <radialGradient id="bgGrad18" cx="50%" cy="45%" r="65%">
      <stop offset="0%" stop-color="#18130E" /><stop offset="60%" stop-color="#080605" /><stop offset="100%" stop-color="#020202" />
    </radialGradient>
    <linearGradient id="goldGrad18" x1="0%" y1="0%" x2="100%" y2="100%">
      <stop offset="0%" stop-color="#FFFBEB" /><stop offset="30%" stop-color="#FCD34D" /><stop offset="65%" stop-color="#F59E0B" /><stop offset="100%" stop-color="#B45309" />
    </linearGradient>
  </defs>

  <rect width="1080" height="1080" fill="url(#bgGrad18)" />

  <g transform="translate(540, 420)">
    <!-- Círculos de Construcción Áurea (Líneas Blueprint) -->
    <circle cx="0" cy="0" r="230" stroke="url(#goldGrad18)" stroke-width="2" />
    <circle cx="0" cy="0" r="142" stroke="url(#goldGrad18)" stroke-width="0.8" stroke-dasharray="4 4" opacity="0.4" />
    <circle cx="0" cy="0" r="88" stroke="url(#goldGrad18)" stroke-width="0.8" stroke-dasharray="3 3" opacity="0.3" />
    <circle cx="-54" cy="0" r="88" stroke="url(#goldGrad18)" stroke-width="0.8" opacity="0.25" />
    <circle cx="54" cy="0" r="88" stroke="url(#goldGrad18)" stroke-width="0.8" opacity="0.25" />

    <!-- Isotipo Central Destacado -->
    <path d="M 0,-180 C -110,-140 -150,-40 -150,20 C -150,110 -80,170 0,180 C -55,130 -75,50 -65,-20 C -55,-80 -25,-140 0,-180 Z" fill="url(#goldGrad18)" opacity="0.95" />
    <path d="M 0,-180 C 105,-150 165,-70 165,25 C 165,120 95,175 0,180 C 38,140 68,80 68,10 C 68,-60 33,-130 0,-180 Z" fill="url(#goldGrad18)" />
    
    <path d="M 0,-170 C 45,-100 50,-40 30,10 C 10,60 35,120 0,170" stroke="#080605" stroke-width="4" stroke-linecap="round" fill="none" />
  </g>

  <text x="540" y="760" text-anchor="middle" class="v18-title">TÉ O CAFÉ</text>
  <text x="540" y="818" text-anchor="middle" class="v18-sub">GEOMETRÍA ÁUREA · PROPORCIÓN FIBONACCI</text>
</svg>